<svg width="17" height="18" viewBox="0 0 17 18" fill="none" xmlns="http://www.w3.org/2000/svg">
<path d="M13.7803 12.4248C14.2714 12.4365 14.7098 12.5856 15.1035 12.8721L15.2695 13.0039H15.2705C16.0879 13.7024 16.3368 14.8456 15.9111 15.8057L15.8164 15.9951C15.2845 16.9567 14.187 17.4327 13.1533 17.1846L12.9473 17.125L12.7188 17.0371C12.278 16.8437 11.9333 16.5481 11.6787 16.1436L11.5586 15.9326C11.2611 15.3486 11.2038 14.7699 11.4111 14.1475L10.8672 13.9658L10.9346 13.6865L11.3506 13.9004L11.7344 13.4316C12.2605 12.7892 12.8707 12.4491 13.627 12.4258L13.7803 12.4248ZM1.36133 7.91406C2.08698 7.08089 3.70131 6.63298 5.01367 7.96191L5.25098 8.20117L5.38672 8.58887C5.58864 9.16491 5.63132 9.6513 5.45996 10.1641L5.25586 10.7754L5.2666 10.7812L5.16992 10.9004C4.05514 12.2642 2.51571 12.0982 1.64941 11.4131L1.48535 11.2695C0.616821 10.4246 0.508512 9.08648 1.20996 8.10547L1.36133 7.91406ZM12.8096 0.920898C13.8541 0.5092 15.0215 0.86265 15.666 1.76367L15.7881 1.95117C16.3448 2.89843 16.1714 4.11705 15.3984 4.87988L15.2363 5.02637H15.2354C14.4493 5.67139 13.0572 5.95669 11.8213 4.69238L11.5156 4.37891L11.4648 4.15137C11.2705 3.27594 11.3367 2.57821 11.5645 2.0625C11.7588 1.62266 12.0919 1.26546 12.5869 1.01953L12.8096 0.920898Z" stroke="#142137" stroke-width="1.5"/>
</svg>
