<svg width="270" height="270" viewBox="0 0 270 270" fill="none" xmlns="http://www.w3.org/2000/svg">
<mask id="path-1-inside-1_164_4522" fill="white">
<path d="M270 135C270 117.272 266.508 99.7167 259.724 83.3377C252.939 66.9588 242.995 52.0765 230.459 39.5406C217.924 27.0047 203.041 17.0607 186.662 10.2763C170.283 3.49188 152.728 0 135 0C117.272 0 99.7167 3.49188 83.3377 10.2763C66.9588 17.0607 52.0765 27.0047 39.5406 39.5406C27.0047 52.0765 17.0606 66.9588 10.2763 83.3378C3.49188 99.7167 -1.54987e-06 117.272 0 135L135 135H270Z"/>
</mask>
<path d="M270 135C270 117.272 266.508 99.7167 259.724 83.3377C252.939 66.9588 242.995 52.0765 230.459 39.5406C217.924 27.0047 203.041 17.0607 186.662 10.2763C170.283 3.49188 152.728 0 135 0C117.272 0 99.7167 3.49188 83.3377 10.2763C66.9588 17.0607 52.0765 27.0047 39.5406 39.5406C27.0047 52.0765 17.0606 66.9588 10.2763 83.3378C3.49188 99.7167 -1.54987e-06 117.272 0 135L135 135H270Z" stroke="#D9DBDF" stroke-width="2" mask="url(#path-1-inside-1_164_4522)"/>
<circle cx="135" cy="135" r="85" fill="#ECF2FE"/>
<path d="M125.136 159.012C122.529 159.012 119.985 158.967 117.446 159.024C115.247 159.074 113.462 158.279 112.045 156.647C111.066 155.519 110.46 154.214 110.457 152.69C110.45 149.906 110.452 147.122 110.45 144.337C110.45 143.881 110.45 143.427 110.45 142.913C110.062 142.663 109.706 142.362 109.296 142.187C106.759 141.104 106.398 137.811 108.652 136.137C107.903 135.329 107.16 134.56 107.16 133.298C107.16 132.025 107.781 131.192 108.639 130.431C106.501 127.966 106.464 126.829 108.474 124.563C107.983 123.807 107.187 123.201 107.18 122.136C107.172 121.188 107.22 120.222 107.911 119.581C108.582 118.958 109.473 118.568 110.407 117.99C110.415 117.817 110.445 117.451 110.445 117.081C110.45 114.255 110.507 111.428 110.435 108.604C110.347 105.191 113.637 101.97 117.053 102C124.395 102.065 131.736 102.058 139.075 102.005C142.443 101.983 145.673 105.181 145.626 108.544C145.566 112.865 145.613 117.189 145.613 121.51C145.613 121.959 145.613 122.405 145.613 122.822C146.157 122.982 146.607 123.067 147.018 123.246C148.368 123.835 149.101 124.873 149.111 126.352C149.129 128.969 149.136 131.589 149.109 134.206C149.101 134.942 149.244 135.541 149.747 136.129C151.876 138.627 152.72 141.641 153.105 144.814C153.301 146.416 153.476 148.02 153.593 149.626C153.636 150.205 153.987 150.515 154.335 150.861C157.016 153.538 159.701 156.213 162.385 158.885C163.041 159.536 163.604 160.242 163.885 161.145C164.578 163.373 162.911 165.823 160.575 165.983C160.367 165.998 160.156 165.993 159.949 165.993C154.192 165.993 148.435 165.985 142.679 166C141.685 166 140.781 165.835 140.027 165.134C139.398 164.548 138.632 164.72 137.888 164.8C134.481 165.167 131.253 164.675 128.346 162.757C126.964 161.844 125.955 160.581 125.131 159.009L125.136 159.012ZM138.955 157.355C138.973 157.091 139.03 156.884 138.99 156.699C138.652 155.093 138.767 153.498 138.98 151.879C139.333 149.212 140.192 146.712 141.414 144.345C141.815 143.569 142.01 142.841 142.008 141.99C141.99 136.835 142.008 131.679 141.995 126.524C141.993 125.259 142.476 124.277 143.5 123.543C143.663 123.426 143.82 123.299 143.921 123.224C143.958 123.094 143.981 123.054 143.981 123.014C143.988 118.359 144.021 113.701 143.978 109.046C143.971 108.242 143.74 107.399 143.432 106.646C142.576 104.547 140.079 103.265 137.385 103.747C136.947 104.53 136.489 105.318 136.058 106.124C135.177 107.776 133.847 108.644 131.929 108.621C129.217 108.592 126.505 108.592 123.794 108.621C121.946 108.641 120.598 107.876 119.715 106.264C119.236 105.393 118.738 104.537 118.27 103.712C115.162 103.327 112.493 105.346 112.233 108.045C112.185 108.537 112.077 109.028 112.075 109.52C112.06 112.179 112.067 114.841 112.067 117.503C112.067 117.912 112.067 118.321 112.067 118.708C112.328 118.87 112.503 118.982 112.678 119.087C114.006 119.868 115.338 120.637 116.655 121.435C117.629 122.024 118.019 122.939 118.074 124.049C118.137 125.322 117.521 126.247 116.57 127.043C117.494 127.807 118.007 128.715 118.044 129.86C118.084 131.085 117.293 131.908 116.55 132.726C118.325 134.301 118.853 136.349 116.62 138.629C116.83 138.821 117.05 139.001 117.246 139.206C118.435 140.443 118.367 142.803 117.035 143.918C115.949 144.826 114.444 145.073 113.082 144.382C112.769 144.225 112.468 144.046 112.065 143.823C112.065 146.665 111.997 149.369 112.087 152.066C112.16 154.247 113.097 156.026 115.225 156.881C116.051 157.213 117 157.375 117.894 157.38C124.57 157.42 131.248 157.403 137.924 157.4C138.249 157.4 138.575 157.373 138.958 157.353L138.955 157.355ZM139.554 159.139C138.079 158.9 128.228 158.965 127.334 159.232C128.416 161.08 130.109 162.068 132.077 162.627C134.265 163.246 136.494 163.365 138.75 162.961C139.386 162.847 140.074 162.742 140.613 163.35C141.357 164.191 142.318 164.416 143.427 164.406C147.642 164.368 151.858 164.391 156.072 164.391C157.367 164.391 158.662 164.413 159.954 164.381C160.938 164.356 161.749 163.967 162.142 163.006C162.538 162.046 162.257 161.222 161.516 160.529C161.333 160.359 161.161 160.177 160.985 160C158.271 157.296 155.574 154.571 152.83 151.897C152.149 151.233 151.876 150.495 151.806 149.587C151.675 147.937 151.505 146.291 151.305 144.647C150.952 141.758 150.171 139.036 148.102 136.84C147.619 136.327 147.491 135.715 147.501 135.012C147.536 132.517 147.514 130.022 147.514 127.527C147.514 127.235 147.541 126.941 147.496 126.654C147.286 125.242 146.512 124.761 145.591 124.761C144.594 124.761 143.873 125.237 143.64 126.604C143.585 126.929 143.618 127.268 143.618 127.6C143.618 132.34 143.595 137.08 143.63 141.82C143.64 143.177 143.573 144.457 142.704 145.597C142.411 145.982 142.283 146.495 142.095 146.957C141.251 149.045 140.66 151.186 140.565 153.456C140.475 155.607 140.733 157.672 141.657 159.643C141.92 160.2 141.762 160.484 141.256 160.758C140.788 161.013 140.435 160.848 140.197 160.449C139.944 160.027 139.761 159.563 139.556 159.134L139.554 159.139ZM120.306 103.702C120.606 104.268 120.879 104.727 121.102 105.209C121.678 106.451 122.712 106.98 124.009 106.997C126.553 107.032 129.097 107.025 131.641 106.997C132.996 106.982 134.037 106.406 134.623 105.129C134.849 104.642 135.117 104.176 135.367 103.702H120.306ZM116.244 129.785C116.309 129.052 115.816 128.632 115.215 128.288C114.138 127.669 113.062 127.048 111.98 126.437C111.619 126.235 111.259 126.013 110.868 125.886C110.102 125.636 109.321 125.98 108.973 126.667C108.617 127.365 108.735 128.251 109.398 128.665C110.906 129.608 112.431 130.541 114.021 131.337C115.125 131.891 116.229 131.07 116.244 129.788V129.785ZM114.632 125.808C115.378 125.828 115.853 125.459 116.174 124.873C116.499 124.279 116.404 123.518 115.876 123.054C115.445 122.675 114.927 122.388 114.426 122.099C113.347 121.475 112.268 120.841 111.158 120.275C110.452 119.913 109.756 120.115 109.253 120.696C108.732 121.298 108.685 121.934 109.203 122.62C109.443 122.939 109.791 123.206 110.139 123.413C111.316 124.117 112.513 124.793 113.713 125.459C113.995 125.616 114.324 125.696 114.629 125.811L114.632 125.808ZM116.259 141.329C116.294 140.827 116.116 140.378 115.636 140.099C114.163 139.243 112.703 138.362 111.199 137.566C110.357 137.12 109.503 137.434 109.05 138.205C108.592 138.984 108.77 139.849 109.604 140.368C110.981 141.221 112.358 142.095 113.813 142.798C115.225 143.482 116.377 142.531 116.257 141.331L116.259 141.329ZM114.471 137.232C115.435 137.255 115.974 136.89 116.232 136.207C116.484 135.543 116.354 134.815 115.746 134.44C114.263 133.525 112.761 132.637 111.219 131.828C110.372 131.384 109.453 131.734 109.078 132.46C108.649 133.288 108.892 134.196 109.746 134.702C111.031 135.466 112.335 136.197 113.645 136.918C113.963 137.092 114.331 137.18 114.471 137.232Z" fill="#142137"/>
<path d="M126.062 129.815C127.903 128.076 129.633 126.457 131.346 124.823C132.102 124.102 132.943 123.678 134.027 123.715C136.361 123.798 137.806 126.27 136.634 128.291C136.326 128.82 135.885 129.289 135.442 129.72C134.521 130.618 133.552 131.472 132.61 132.352C131.123 133.744 129.653 135.159 128.153 136.539C126.921 137.671 125.076 137.656 123.859 136.489C122.537 135.221 121.235 133.929 119.965 132.609C118.172 130.746 119.171 128.119 121.169 127.435C122.296 127.048 123.308 127.243 124.189 128.014C124.81 128.558 125.381 129.159 126.065 129.82L126.062 129.815ZM120.816 130.728C120.944 130.93 121.144 131.389 121.467 131.736C122.349 132.677 123.283 133.57 124.199 134.478C125.729 135.995 126.288 135.997 127.817 134.538C129.292 133.133 130.787 131.749 132.262 130.344C133.136 129.513 134.017 128.685 134.846 127.809C135.62 126.991 135.272 125.731 134.225 125.414C133.564 125.215 133.116 125.606 132.685 126.01C131.11 127.492 129.543 128.979 127.965 130.459C127.602 130.798 127.229 131.135 126.831 131.429C126.1 131.971 125.854 131.958 125.213 131.362C124.667 130.85 124.162 130.294 123.611 129.785C123.34 129.536 123.04 129.276 122.704 129.144C121.75 128.77 120.776 129.461 120.814 130.731L120.816 130.728Z" fill="#142137"/>
<path d="M128.045 152.525C126.673 152.525 125.303 152.525 123.931 152.525C123.641 152.525 123.303 152.588 123.075 152.463C122.827 152.328 122.574 152.031 122.509 151.762C122.409 151.355 122.672 151.046 123.097 150.961C123.338 150.914 123.593 150.921 123.841 150.921C126.626 150.921 129.408 150.919 132.192 150.921C132.482 150.921 132.828 150.864 133.046 150.996C133.284 151.143 133.542 151.487 133.537 151.739C133.532 151.989 133.256 152.316 133.011 152.455C132.788 152.585 132.445 152.523 132.157 152.525C130.785 152.53 129.415 152.525 128.043 152.525H128.045Z" fill="#142137"/>
</svg>
