<svg width="270" height="270" viewBox="0 0 270 270" fill="none" xmlns="http://www.w3.org/2000/svg">
<mask id="path-1-inside-1_164_4685" fill="white">
<path d="M270 135C270 152.728 266.508 170.283 259.724 186.662C252.939 203.041 242.995 217.924 230.459 230.459C217.924 242.995 203.041 252.939 186.662 259.724C170.283 266.508 152.728 270 135 270C117.272 270 99.7167 266.508 83.3377 259.724C66.9588 252.939 52.0765 242.995 39.5406 230.459C27.0047 217.923 17.0606 203.041 10.2763 186.662C3.49188 170.283 -1.54987e-06 152.728 0 135L135 135H270Z"/>
</mask>
<path d="M270 135C270 152.728 266.508 170.283 259.724 186.662C252.939 203.041 242.995 217.924 230.459 230.459C217.924 242.995 203.041 252.939 186.662 259.724C170.283 266.508 152.728 270 135 270C117.272 270 99.7167 266.508 83.3377 259.724C66.9588 252.939 52.0765 242.995 39.5406 230.459C27.0047 217.923 17.0606 203.041 10.2763 186.662C3.49188 170.283 -1.54987e-06 152.728 0 135L135 135H270Z" stroke="#D9DBDF" stroke-width="2" mask="url(#path-1-inside-1_164_4685)"/>
<circle cx="135" cy="135" r="85" fill="#ECF2FE"/>
<path d="M116.03 116.873C115.778 114.69 115.544 112.503 115.268 110.323C115.092 108.943 115.27 108.593 116.639 108.411C119.744 107.996 122.853 107.613 125.967 107.271C127.158 107.141 128.094 106.861 129.008 105.853C133.519 100.871 141.703 102.696 143.93 109.133C144.248 110.048 144.668 110.426 145.575 110.618C148.157 111.168 150.706 111.885 153.285 112.448C154.478 112.708 154.708 113.36 154.434 114.433C154.229 115.235 154.063 116.048 153.884 116.84C153.967 116.92 154.031 117.023 154.077 117.018C155.881 116.748 156.62 117.928 157.556 119.27C159.411 121.935 160.02 124.802 160.15 128C160.653 140.356 161.311 152.706 161.907 165.06C161.99 166.795 161.797 167 160.079 167C143.661 167 127.243 167 110.823 167C109.12 167 108.931 166.795 109.017 165.04C109.616 152.688 110.212 140.334 110.814 127.982C110.877 126.652 110.928 125.32 111.038 123.992C111.075 123.557 111.214 123.1 111.427 122.72C112.256 121.24 113.077 119.75 114.011 118.343C114.422 117.72 115.096 117.28 115.651 116.758L116.03 116.878V116.873ZM159.793 164.74C159.123 151.343 158.46 138.092 157.793 124.797H113.126C112.461 138.129 111.799 151.406 111.131 164.74H159.79H159.793ZM123.968 122.442C123.721 121.402 123.496 120.44 123.261 119.478C123 118.4 123.283 117.7 124.454 117.505C125.212 117.378 125.96 117.168 126.708 116.983C129.057 116.398 131.404 115.805 133.834 115.195C133.57 112.94 133.321 110.818 133.059 108.596C127.752 109.241 122.613 109.866 117.446 110.493C117.922 114.603 118.377 118.513 118.832 122.445H123.97L123.968 122.442ZM139.334 113.753C139.674 113.728 139.87 113.735 140.055 113.695C141.977 113.278 142.111 113.365 142.549 115.268C143.033 117.363 143.563 119.45 144.001 121.555C144.162 122.322 144.497 122.55 145.235 122.52C146.656 122.462 148.081 122.46 149.501 122.52C150.232 122.552 150.496 122.255 150.623 121.575C150.853 120.355 151.149 119.15 151.42 117.938C151.677 116.788 151.938 115.64 152.212 114.425C148.008 113.418 144.001 112.458 139.882 111.473C139.696 112.24 139.53 112.935 139.332 113.75L139.334 113.753ZM125.464 119.513C125.738 120.603 125.972 121.545 126.202 122.462H142.048C141.525 120.243 141.016 118.088 140.481 115.82C135.425 117.065 130.475 118.283 125.461 119.515L125.464 119.513ZM135.912 114.52C136.049 114.613 136.186 114.708 136.323 114.8C136.609 114.403 137.017 114.043 137.151 113.598C137.476 112.53 137.674 111.423 137.919 110.333C138.136 109.358 138.625 108.888 139.669 109.203C140.334 109.406 141.033 109.486 141.806 109.641C140.036 105.393 134.518 103.703 131.822 106.486C132.091 106.486 132.35 106.546 132.573 106.476C134.819 105.776 135.083 106.756 135.242 108.838C135.386 110.738 135.682 112.628 135.912 114.523V114.52ZM152.589 122.442H156.673C155.713 119.678 155.138 119.14 153.315 119.36C153.087 120.325 152.853 121.317 152.589 122.442ZM116.292 119.308C116.189 119.275 116.086 119.24 115.984 119.208C115.365 120.245 114.747 121.282 114.077 122.405H116.69C116.546 121.3 116.419 120.305 116.289 119.31L116.292 119.308Z" fill="#142137"/>
<path d="M142.326 135.894C142.326 135.477 142.297 135.059 142.334 134.644C142.407 133.769 142.231 133.157 141.412 132.584C139.928 131.549 139.879 129.157 141.146 127.837C142.385 126.545 144.541 126.575 145.744 127.902C146.988 129.274 146.873 131.604 145.362 132.639C144.624 133.144 144.485 133.669 144.48 134.469C144.473 135.962 144.507 137.481 144.26 138.944C143.507 143.406 139.339 146.711 135.054 146.376C130.245 146.001 126.6 142.254 126.437 137.504C126.41 136.714 126.402 135.919 126.437 135.129C126.483 134.034 126.4 133.174 125.332 132.394C123.902 131.349 124.034 128.992 125.332 127.749C126.622 126.512 128.793 126.627 129.925 127.992C131.072 129.377 130.918 131.654 129.451 132.639C128.698 133.147 128.544 133.687 128.598 134.482C128.7 136.012 128.554 137.596 128.896 139.064C129.671 142.386 133.027 144.641 136.181 144.196C139.757 143.691 142.275 140.856 142.329 137.266C142.336 136.809 142.329 136.349 142.329 135.892L142.326 135.894ZM128.551 130.284C128.551 129.559 128.204 129.017 127.449 129.064C126.735 129.109 126.356 129.614 126.486 130.284H128.551ZM144.35 130.279C144.446 130.207 144.543 130.134 144.639 130.062C144.238 129.717 143.842 129.114 143.431 129.104C143.025 129.094 142.61 129.687 142.197 130.017C142.265 130.104 142.331 130.192 142.4 130.279H144.348H144.35Z" fill="#142137"/>
</svg>
