<svg width="270" height="270" viewBox="0 0 270 270" fill="none" xmlns="http://www.w3.org/2000/svg">
<mask id="path-1-inside-1_164_4699" fill="white">
<path d="M270 135C270 117.272 266.508 99.7167 259.724 83.3377C252.939 66.9588 242.995 52.0765 230.459 39.5406C217.924 27.0047 203.041 17.0607 186.662 10.2763C170.283 3.49188 152.728 0 135 0C117.272 0 99.7167 3.49188 83.3377 10.2763C66.9588 17.0607 52.0765 27.0047 39.5406 39.5406C27.0047 52.0765 17.0606 66.9588 10.2763 83.3378C3.49188 99.7167 -1.54987e-06 117.272 0 135L135 135H270Z"/>
</mask>
<path d="M270 135C270 117.272 266.508 99.7167 259.724 83.3377C252.939 66.9588 242.995 52.0765 230.459 39.5406C217.924 27.0047 203.041 17.0607 186.662 10.2763C170.283 3.49188 152.728 0 135 0C117.272 0 99.7167 3.49188 83.3377 10.2763C66.9588 17.0607 52.0765 27.0047 39.5406 39.5406C27.0047 52.0765 17.0606 66.9588 10.2763 83.3378C3.49188 99.7167 -1.54987e-06 117.272 0 135L135 135H270Z" stroke="#D9DBDF" stroke-width="2" mask="url(#path-1-inside-1_164_4699)"/>
<circle cx="135" cy="135" r="85" fill="#ECF2FE"/>
<path d="M117.625 149.952C117.625 145.202 117.59 140.452 117.653 135.701C117.665 134.661 117.312 134.18 116.392 133.755C113.223 132.294 110.108 130.708 106.949 129.225C105.988 128.775 105.753 128.287 106.261 127.296C108.89 122.153 111.417 116.958 114.113 111.85C114.601 110.927 115.591 110.091 116.552 109.631C119.164 108.373 121.893 107.36 124.554 106.197C125.17 105.929 125.777 105.536 126.25 105.063C127.486 103.815 128.729 102.902 130.683 103.01C133.757 103.182 136.856 103.187 139.928 103.01C141.929 102.895 143.215 103.81 144.466 105.108C144.874 105.531 145.409 105.881 145.952 106.117C148.616 107.272 151.32 108.333 153.969 109.519C155.41 110.164 156.385 111.295 157.101 112.76C159.41 117.506 161.828 122.198 164.202 126.911C164.756 128.01 164.463 128.837 163.322 129.39C160.333 130.844 157.363 132.347 154.339 133.725C153.369 134.168 153.018 134.671 153.023 135.761C153.073 145.262 153.051 154.763 153.051 164.266C153.051 166.127 153.058 166.219 151.275 166.392C148.333 166.677 145.379 167.012 142.432 167C135.228 166.965 128.021 166.857 120.825 166.547C117 166.382 117.653 166.357 117.633 163.202C117.603 158.785 117.625 154.367 117.625 149.95V149.952ZM151.442 164.921C151.442 164.231 151.442 163.74 151.442 163.247C151.442 152.118 151.557 140.989 151.395 129.863C151.31 124.035 152.373 118.541 154.814 113.288C155.162 112.54 155.072 112.075 154.397 111.612C151.8 109.839 148.883 108.811 146.134 107.86C145.426 111.112 144.739 114.269 144.051 117.428C143.871 118.251 143.368 118.514 142.575 118.301C141.492 118.009 140.406 117.726 139.325 117.433C137.434 116.92 137.124 117.043 136.281 118.814C136.131 119.132 136.111 119.532 136.108 119.895C136.091 121.561 136.148 123.232 136.066 124.895C136.046 125.3 135.598 125.683 135.346 126.078C135.09 125.688 134.635 125.308 134.615 124.908C134.533 123.162 134.608 121.408 134.573 119.657C134.538 117.946 133.194 116.925 131.603 117.351C130.56 117.631 129.51 117.888 128.479 118.211C127.381 118.556 126.791 118.309 126.545 117.073C125.94 114.001 125.222 110.954 124.494 107.637C121.933 108.846 119.309 110.069 116.702 111.325C115.679 111.817 115.479 112.473 116.002 113.621C118.218 118.484 119.336 123.567 119.274 128.972C119.144 140.392 119.234 151.813 119.234 163.232C119.234 163.725 119.234 164.216 119.234 164.916C130.007 165.774 140.661 165.774 151.442 164.916V164.921ZM108.89 125.563C111.834 127.001 114.648 128.38 117.513 129.78C118.11 124.305 116.815 119.359 114.583 114.304C112.645 118.141 110.814 121.758 108.89 125.565V125.563ZM153.171 129.78C156.07 128.36 158.884 126.981 161.783 125.56C159.87 121.778 158.029 118.136 156.083 114.291C153.889 119.352 152.558 124.272 153.171 129.78ZM139.746 106.98H130.898C132.541 110.457 133.097 114.191 135.378 117.451C137.524 114.119 138.19 110.479 139.746 106.98ZM132.446 115.517C131.136 111.945 129.895 108.571 128.649 105.174C126.836 106.299 126.153 107.715 126.525 109.619C126.983 111.957 127.508 114.286 128.021 116.71C129.617 116.28 130.965 115.917 132.446 115.52V115.517ZM142.682 116.71C143.25 113.976 143.835 111.472 144.268 108.941C144.511 107.517 143.493 105.989 142.002 105.226C140.761 108.616 139.523 111.993 138.235 115.512C139.696 115.905 141.074 116.278 142.682 116.71ZM117.46 132.56C117.555 132.469 117.65 132.379 117.745 132.289C117.473 131.939 117.277 131.444 116.92 131.261C114.263 129.908 111.569 128.63 108.903 127.294C108.205 126.944 107.939 127.141 107.847 127.904C111.071 129.465 114.266 131.011 117.46 132.56ZM162.802 127.917C162.827 127.752 162.852 127.587 162.877 127.424C162.546 127.369 162.149 127.164 161.901 127.281C159.132 128.592 156.375 129.933 153.644 131.321C153.321 131.484 153.168 131.979 152.936 132.319C153.031 132.399 153.123 132.479 153.218 132.56C156.413 131.011 159.61 129.465 162.804 127.917H162.802ZM130.293 104.656C130.268 104.798 130.243 104.941 130.218 105.083C130.68 105.164 131.143 105.314 131.606 105.311C134.498 105.291 137.387 105.241 140.276 105.179C140.331 105.179 140.381 104.898 140.466 104.656H130.293Z" fill="#142137"/>
<path d="M138.412 120.662C137.912 121.04 137.632 121.408 137.337 121.423C137.104 121.433 136.854 121.003 136.611 120.77C136.864 120.517 137.081 120.135 137.382 120.057C137.594 120.002 137.914 120.352 138.415 120.665L138.412 120.662Z" fill="#142137"/>
</svg>
