<svg width="270" height="270" viewBox="0 0 270 270" fill="none" xmlns="http://www.w3.org/2000/svg">
<mask id="path-1-inside-1_164_4713" fill="white">
<path d="M270 135C270 152.728 266.508 170.283 259.724 186.662C252.939 203.041 242.995 217.924 230.459 230.459C217.924 242.995 203.041 252.939 186.662 259.724C170.283 266.508 152.728 270 135 270C117.272 270 99.7167 266.508 83.3377 259.724C66.9588 252.939 52.0765 242.995 39.5406 230.459C27.0047 217.923 17.0606 203.041 10.2763 186.662C3.49188 170.283 -1.54987e-06 152.728 0 135L135 135H270Z"/>
</mask>
<path d="M270 135C270 152.728 266.508 170.283 259.724 186.662C252.939 203.041 242.995 217.924 230.459 230.459C217.924 242.995 203.041 252.939 186.662 259.724C170.283 266.508 152.728 270 135 270C117.272 270 99.7167 266.508 83.3377 259.724C66.9588 252.939 52.0765 242.995 39.5406 230.459C27.0047 217.923 17.0606 203.041 10.2763 186.662C3.49188 170.283 -1.54987e-06 152.728 0 135L135 135H270Z" stroke="#D9DBDF" stroke-width="2" mask="url(#path-1-inside-1_164_4713)"/>
<circle cx="135" cy="135" r="85" fill="#ECF2FE"/>
<path d="M108.345 152.977C107.304 152.977 106.306 152.996 105.311 152.974C102.326 152.906 100.025 150.653 100.016 147.679C99.9945 136.568 99.9945 125.456 100.016 114.344C100.022 111.739 101.823 109.653 104.396 109.178C105.103 109.046 105.839 109.008 106.563 109.008C122.459 109 138.351 109 154.244 109C160.974 109 164.815 112.021 166.435 118.573C167.461 122.714 168.663 126.82 169.448 131.005C169.945 133.659 169.869 136.431 169.962 139.153C170.036 141.338 169.981 143.524 169.975 145.711C169.967 150.041 167.157 152.909 162.855 152.98C162.45 152.985 162.048 152.98 161.605 152.98C160.927 156.539 159.082 159.094 155.693 160.297C150.833 162.022 145.565 159.13 144.357 154.059C144.152 153.201 143.87 152.96 143.034 152.966C137.66 152.999 132.286 152.966 126.914 153.012C126.512 153.015 125.856 153.381 125.752 153.715C124.358 158.236 121.16 160.885 117.063 160.808C112.837 160.732 109.649 157.982 108.485 153.412C108.463 153.324 108.43 153.239 108.348 152.977H108.345ZM167.876 146.624C166.867 146.575 165.96 146.583 165.066 146.474C162.644 146.181 160.979 144.241 161.097 141.909C161.22 139.503 163.101 137.702 165.558 137.653C166.362 137.636 167.165 137.653 167.944 137.653V135.261C167.34 135.261 166.848 135.261 166.353 135.261C161.072 135.261 155.788 135.275 150.507 135.253C148.176 135.245 146.888 134.058 146.861 131.778C146.806 127.454 146.803 123.127 146.861 118.8C146.891 116.542 148.23 115.298 150.51 115.279C154.017 115.252 157.524 115.271 161.029 115.271C161.646 115.271 162.264 115.271 163.161 115.271C161.127 112.31 158.533 110.979 155.296 110.974C138.811 110.949 122.327 110.952 105.842 110.968C103.245 110.968 101.935 112.359 101.927 114.984C101.919 118.854 101.927 122.725 101.927 126.596C101.927 133.473 101.922 140.348 101.933 147.226C101.935 149.308 103.113 150.842 104.918 151.011C106.074 151.121 107.252 151.031 108.381 151.031C109.592 146.121 112.662 143.404 116.956 143.328C121.423 143.251 124.484 145.842 125.914 150.957H144.1C145.18 146.397 148.096 143.628 151.983 143.355C153.998 143.213 155.868 143.576 157.576 144.694C159.872 146.195 161.097 148.39 161.594 150.984C165.38 151.214 167.507 149.754 167.873 146.621L167.876 146.624ZM167.756 133.296C167.756 132.784 167.827 132.41 167.745 132.071C166.597 127.358 165.44 122.648 164.232 117.95C164.156 117.652 163.628 117.266 163.306 117.263C158.984 117.22 154.662 117.225 150.341 117.247C149.458 117.252 148.856 117.679 148.856 118.655C148.851 123.067 148.845 127.481 148.856 131.893C148.856 132.738 149.266 133.293 150.174 133.293C155.991 133.301 161.81 133.296 167.759 133.296H167.756ZM152.872 145.271C149.097 145.263 146.09 148.204 146.027 151.968C145.964 155.708 149.108 158.857 152.88 158.832C156.63 158.807 159.61 155.798 159.613 152.031C159.613 148.251 156.652 145.279 152.872 145.268V145.271ZM110.374 152.037C110.374 155.801 113.359 158.813 117.109 158.835C120.832 158.857 123.899 155.842 123.957 152.105C124.014 148.333 120.942 145.266 117.112 145.274C113.331 145.282 110.374 148.253 110.374 152.039V152.037ZM167.98 139.553C166.247 139.689 164.366 139.011 163.453 140.878C163.106 141.589 163.158 142.844 163.573 143.513C164.604 145.175 166.384 144.421 167.98 144.544V139.553Z" fill="#142137"/>
<path d="M123.585 132.47C118.85 132.47 114.116 132.476 109.381 132.47C106.913 132.465 105.716 131.265 105.708 128.791C105.697 125.467 105.691 122.146 105.708 118.822C105.721 116.646 106.992 115.301 109.166 115.295C118.815 115.268 128.467 115.268 138.116 115.295C140.295 115.301 141.569 116.638 141.582 118.813C141.604 122.181 141.601 125.552 141.582 128.919C141.571 131.229 140.344 132.462 138.056 132.467C133.231 132.481 128.407 132.473 123.582 132.473L123.585 132.47ZM118.921 130.439H128.377C128.377 126.249 128.396 122.165 128.338 118.081C128.336 117.794 127.778 117.28 127.466 117.272C124.922 117.206 122.377 117.206 119.832 117.272C119.523 117.28 118.965 117.797 118.96 118.081C118.902 122.165 118.921 126.249 118.921 130.439ZM116.904 117.258C114.206 117.258 111.579 117.217 108.952 117.28C107.952 117.305 107.621 118.021 107.632 118.988C107.662 121.809 107.643 124.633 107.643 127.454C107.643 129.515 108.668 130.546 110.718 130.546C112.79 130.546 114.862 130.546 116.904 130.546V117.258ZM130.391 130.538C133.103 130.538 135.73 130.562 138.36 130.524C139.223 130.513 139.652 129.958 139.652 129.086C139.652 125.628 139.65 122.167 139.652 118.71C139.652 117.816 139.16 117.294 138.338 117.277C135.711 117.225 133.084 117.258 130.389 117.258V130.538H130.391Z" fill="#142137"/>
<path d="M148.908 152.001C148.919 149.79 150.726 148.008 152.907 148.049C155.007 148.09 156.805 149.896 156.835 151.993C156.865 154.177 155.069 155.973 152.853 155.976C150.606 155.978 148.894 154.254 148.908 152.001ZM154.884 152.029C154.878 151.009 153.889 150.011 152.869 149.992C151.759 149.973 150.805 150.971 150.843 152.111C150.879 153.193 151.811 154.079 152.888 154.051C153.954 154.027 154.892 153.078 154.886 152.029H154.884Z" fill="#142137"/>
<path d="M121.075 152.048C121.07 154.292 119.34 155.997 117.087 155.976C114.933 155.956 113.184 154.226 113.151 152.083C113.118 149.945 114.971 148.062 117.123 148.048C119.31 148.035 121.081 149.825 121.075 152.045V152.048ZM117.117 149.992C116.095 150.008 115.105 151.006 115.1 152.026C115.092 153.133 116.109 154.1 117.229 154.051C118.304 154.002 119.173 153.059 119.143 151.976C119.11 150.899 118.17 149.976 117.117 149.992Z" fill="#142137"/>
</svg>
