<svg width="62" height="60" viewBox="0 0 62 60" fill="none" xmlns="http://www.w3.org/2000/svg">
<path d="M30.9845 59.994C22.4039 59.994 13.8259 59.994 5.24532 59.994C4.81096 59.994 4.3792 60.0018 3.94484 59.981C1.4089 59.8535 -0.224513 57.8013 0.199445 55.281C0.285277 54.7686 0.378912 54.2588 0.472547 53.749C0.64161 52.8205 0.74825 51.9518 0.295681 50.9998C-0.0112331 50.3574 0.0980076 49.4861 0.13182 48.7214C0.15783 48.1231 0.363306 47.5353 0.475148 46.9397C0.610398 46.2114 0.672822 45.5092 0.29308 44.7965C-0.107469 44.0396 -0.0268389 43.1995 0.121416 42.3776C1.57276 34.3796 3.0267 26.379 4.47804 18.3811C5.08927 15.0206 5.69009 11.6576 6.30912 8.29711C6.76949 5.79758 8.25465 4.57773 10.8322 4.56212C11.9584 4.55432 13.0872 4.53091 14.2109 4.57252C14.8403 4.59593 15.2643 4.37745 15.6336 3.88067C16.4087 2.83768 17.2618 1.85451 18.0187 0.798518C18.4504 0.200295 18.9472 2.0515e-05 19.6651 0.00262148C27.1611 0.0234292 34.6571 0.0286312 42.1531 2.0515e-05C42.9334 -0.00258045 43.4405 0.241911 43.8931 0.863542C44.6526 1.91433 45.5213 2.8897 46.286 3.94049C46.6371 4.42427 47.0299 4.58293 47.5995 4.56992C48.8115 4.53871 50.0262 4.54651 51.2383 4.56472C53.5999 4.59593 55.0409 5.77157 55.4856 8.11244C56.3544 12.7006 57.1841 17.2965 58.0242 21.8924C58.8539 26.4441 59.6784 30.9984 60.5029 35.5501C60.9425 37.9768 61.369 40.4035 61.8216 42.8276C61.9724 43.6365 61.7852 44.3777 61.4549 45.093C61.2676 45.5014 61.1948 45.8707 61.3066 46.3311C61.5017 47.127 61.5381 47.9619 61.7436 48.7552C61.975 49.6447 61.8736 50.4848 61.5173 51.2885C61.3092 51.7593 61.3066 52.1963 61.4002 52.6722C61.5589 53.4785 61.6837 54.29 61.8502 55.0963C62.412 57.8274 60.3729 60.1006 57.8915 59.9966C57.5014 59.981 57.1112 59.9966 56.7211 59.9966C48.1405 59.9966 39.5625 59.9966 30.9819 59.9966L30.9845 59.994ZM29.8817 15.6683C28.9896 16.7451 28.2639 17.658 27.4966 18.5371C26.7631 19.3746 26.1961 19.3694 25.4575 18.5475C24.7916 17.8063 24.1492 17.0442 23.4937 16.2925C20.9084 13.317 18.3126 10.3493 15.7428 7.35816C15.2877 6.82756 14.8221 6.54146 14.086 6.58307C12.9624 6.6481 11.8336 6.59088 10.7074 6.60388C9.1962 6.62209 8.61098 7.11627 8.33007 8.60403C7.82549 11.283 7.3235 13.9594 6.83452 16.641C5.4534 24.215 4.07749 31.7891 2.70678 39.3657C2.47529 40.6428 2.2178 41.9198 2.08775 43.2073C1.9655 44.4324 2.7614 45.2517 3.99166 45.3453C4.20754 45.3609 4.42602 45.3505 4.6419 45.3505C12.7023 45.3505 20.7653 45.3505 28.8257 45.3505H29.8791V15.6683H29.8817ZM32.0275 45.3479H33.471C38.5377 45.3479 43.6044 45.3479 48.6711 45.3479C51.6154 45.3479 54.5597 45.3583 57.5066 45.3427C59.257 45.3349 60.0763 44.3595 59.7694 42.6871C59.0542 38.7753 58.3285 34.866 57.6158 30.9541C56.7029 25.9369 55.8003 20.917 54.8952 15.8971C54.4504 13.4314 54.0187 10.9605 53.5531 8.49739C53.2956 7.13448 52.6272 6.61428 51.1992 6.59868C50.0314 6.58567 48.861 6.62209 47.6931 6.58307C47.0793 6.56226 46.6579 6.74433 46.2496 7.22551C44.6292 9.14243 42.962 11.0229 41.313 12.9138C39.6613 14.8047 38.0227 16.7086 36.3503 18.5813C35.6428 19.372 35.107 19.3486 34.4152 18.5657C33.9288 18.0143 33.4814 17.4291 33.0055 16.8673C32.7376 16.55 32.4436 16.2535 32.0275 15.8035V45.3453V45.3479ZM59.5249 53.6476C53.1005 53.7516 46.7854 53.6814 40.4676 53.6944C34.1447 53.7074 27.8191 53.697 21.4962 53.697C15.1732 53.697 8.88148 53.697 2.51171 53.697C2.38686 54.3811 2.20739 55.0937 2.13457 55.8168C2.02272 56.9274 2.65216 57.7571 3.74977 57.973C4.16852 58.0562 4.61069 58.0406 5.04245 58.0406C22.3675 58.0432 39.6951 58.0406 57.0202 58.0406C57.3245 58.0406 57.6288 58.0588 57.9305 58.0276C59.2804 57.895 59.9749 57.1225 59.8735 55.783C59.8136 55.0183 59.6316 54.2614 59.5275 53.645L59.5249 53.6476ZM2.45709 47.296C2.34264 47.8604 2.20739 48.404 2.12936 48.9555C1.85886 50.8334 2.54292 51.6136 4.45983 51.6397C4.58988 51.6397 4.71993 51.6397 4.84998 51.6397C22.2296 51.6397 39.6067 51.6397 56.9864 51.6397C57.4181 51.6397 57.8577 51.6553 58.2843 51.5954C59.0594 51.4862 59.7616 50.8151 59.8162 50.0453C59.8865 49.0621 59.6862 48.1049 59.3299 47.2752C58.4403 47.3298 57.6678 47.4157 56.898 47.4157C39.8226 47.4235 22.7472 47.4235 5.67188 47.4157C4.6393 47.4157 3.60932 47.3403 2.45969 47.296H2.45709ZM29.5046 12.8748C26.8256 9.85769 20.0214 3.18881 19.1111 2.69723C18.3802 3.63357 17.6441 4.57773 16.8847 5.55569C20.0943 9.24386 23.2388 12.8618 26.4614 16.5656C27.4966 15.3119 28.4798 14.1207 29.5046 12.8774V12.8748ZM42.6238 2.53857C39.1359 6.04207 35.7651 9.42593 32.3448 12.8592C33.4242 14.1519 34.4048 15.3249 35.4296 16.5552C38.673 12.789 41.8878 9.19705 44.9907 5.51667C44.1792 4.49449 43.4562 3.58676 42.6264 2.53857H42.6238ZM21.6912 2.03138C22.5652 2.91831 23.2596 3.66739 24.0139 4.35404C24.2038 4.52571 24.5757 4.55172 24.8644 4.55172C28.8881 4.56472 32.9118 4.56472 36.9355 4.55172C37.2268 4.55172 37.6066 4.54391 37.7912 4.37485C38.5715 3.65438 39.4064 2.97293 40.0281 2.03138H21.6938H21.6912ZM35.2137 6.6559H26.5603C28.0064 8.10724 29.489 9.5976 30.8779 10.9917C32.2746 9.59499 33.7571 8.11244 35.2137 6.6559Z" fill="#142137"/>
<path d="M47.1444 34.1426C45.4563 34.1426 43.7683 34.153 42.0803 34.14C40.7798 34.1296 40.4729 33.8643 40.4183 32.5482C40.2726 28.9589 40.1504 25.3695 40.0463 21.7802C40.0151 20.6982 40.3194 20.4043 41.4352 20.3965C44.4211 20.3809 47.4071 20.3835 50.3956 20.3965C51.5452 20.4017 51.8053 20.6384 51.9978 21.8114C52.2709 23.4734 52.5258 25.1407 52.7859 26.8053C53.0538 28.5115 53.3321 30.2178 53.5792 31.9292C53.8627 33.8851 53.6312 34.1426 51.6909 34.1452C50.1771 34.1452 48.6607 34.1452 47.147 34.1452L47.1444 34.1426ZM50.047 22.5111H42.0647C42.1921 25.7207 42.317 28.8522 42.4418 32.0254H51.5426C51.0354 28.8028 50.5438 25.6661 50.047 22.5111Z" fill="#142137"/>
<path d="M35.7104 31.2901C35.7364 32.0729 35.2318 32.6243 34.4724 32.6426C33.7337 32.6608 33.1225 32.1094 33.0886 31.3941C33.0574 30.723 33.6817 30.0494 34.3683 30.0208C35.0966 29.9896 35.6896 30.5488 35.713 31.2901H35.7104Z" fill="#142137"/>
<path d="M35.7106 38.6267C35.6924 39.3888 35.1357 39.9246 34.3841 39.8986C33.6766 39.8752 33.0654 39.2406 33.0888 38.5539C33.1122 37.8647 33.7546 37.2664 34.4595 37.282C35.2086 37.2976 35.7288 37.8595 35.7106 38.6293V38.6267Z" fill="#142137"/>
<path d="M34.397 25.3905C33.6505 25.3801 33.0809 24.8079 33.0887 24.0796C33.0965 23.4086 33.7572 22.7661 34.436 22.7661C35.1357 22.7661 35.7157 23.3799 35.7131 24.1186C35.7105 24.8807 35.1695 25.4009 34.397 25.3905Z" fill="#142137"/>
</svg>
