<svg width="64" height="64" viewBox="0 0 64 64" fill="none" xmlns="http://www.w3.org/2000/svg">
<path d="M12.3873 28.7257C10.8834 29.7238 9.60389 30.5849 8.31149 31.4253C7.1197 32.201 6.76629 32.1312 6.04915 30.9392C4.16085 27.8078 2.28545 24.666 0.415205 21.5243C-0.203909 20.4822 -0.165214 20.2184 0.766037 19.4479C3.7868 16.9551 6.81272 14.4728 9.84896 12.0033C11.3452 10.7854 13.0606 10.0278 14.9567 9.68126C15.421 9.59593 15.8776 9.47957 16.427 9.35803V6.73603C11.0794 5.64482 5.83246 4.11143 0.686068 1.85144C0.938873 1.23084 1.15814 0.687825 1.41611 0.0543019C3.91836 0.938648 6.34322 1.88247 8.82484 2.65045C11.2781 3.41068 13.7881 3.99249 16.3548 4.67514C16.4425 4.28985 16.489 4.05196 16.5509 3.81924C16.7082 3.2426 17.1003 2.97109 17.6885 2.97109C18.6352 2.97109 19.582 2.94265 20.5261 2.97885C21.2923 3.00988 21.6096 3.33828 21.674 4.08816C21.7102 4.50965 21.6792 4.93372 21.6792 5.45088C28.5772 6.27058 35.3668 6.34816 42.2493 5.45605C42.2725 4.99578 42.2828 4.57688 42.3189 4.15798C42.386 3.3331 42.6981 3.01246 43.5314 2.97368C44.2175 2.94006 44.9063 2.96333 45.5951 2.96592C47.1712 2.97109 47.2357 3.02022 47.651 4.57171C52.7949 3.79338 57.6807 2.12553 62.5201 0C62.809 0.638694 63.0515 1.17654 63.3507 1.83334C58.2998 4.24072 53.0631 5.78445 47.5711 6.74637V9.33476C48.0483 9.44854 48.4972 9.58041 48.9563 9.65799C50.9504 9.99931 52.7252 10.8216 54.2885 12.0964C57.2551 14.5167 60.2165 16.9448 63.1702 19.3832C64.1737 20.2132 64.2175 20.4615 63.5674 21.5527C61.6972 24.697 59.8218 27.8362 57.9335 30.9676C57.2473 32.1028 56.8655 32.1829 55.7692 31.4667C54.4432 30.6004 53.1276 29.7161 51.616 28.7102V30.2514C51.616 40.6799 51.616 51.1085 51.616 61.537C51.616 61.7956 51.616 62.0542 51.616 62.3128C51.6005 63.7453 51.3735 63.9961 49.9856 63.9961C37.9903 64.0013 25.9949 64.0013 14.0022 63.9961C12.6221 63.9961 12.4002 63.7505 12.4002 62.2895C12.3976 51.6463 12.4002 41.0005 12.4002 30.3574C12.4002 29.8868 12.4002 29.4161 12.4002 28.7231L12.3873 28.7257ZM40.2707 11.3103C39.2414 15.6053 36.6901 18.3592 32.1706 18.4368C27.4653 18.517 24.798 15.7346 23.7145 11.3232H21.6818C21.6818 12.161 21.6869 12.929 21.6818 13.697C21.6689 15.1321 21.4419 15.3674 20.0592 15.3855C19.4143 15.3933 18.7694 15.3933 18.1245 15.3855C16.7805 15.3674 16.556 15.1296 16.5096 13.8108C16.4838 13.0583 16.6386 12.2878 16.3961 11.5456C14.126 11.7835 12.2222 12.6653 10.5248 14.0926C8.12318 16.1147 5.6751 18.08 3.25281 20.0788C2.96647 20.3141 2.71883 20.5959 2.43765 20.8726C4.17117 23.7636 5.85051 26.5614 7.5634 29.4161C8.57977 28.7438 9.50845 28.131 10.4345 27.5182C11.2239 26.9958 11.9875 26.4347 12.8027 25.9589C13.6333 25.4728 14.3427 25.8607 14.4459 26.8174C14.482 27.1587 14.4588 27.5052 14.4588 27.8517C14.4588 38.7069 14.4588 49.5647 14.4588 60.42V61.8577H49.5342V60.3915C49.5342 49.5777 49.5342 38.7638 49.5342 27.9526C49.5342 27.6087 49.5135 27.2622 49.5419 26.9182C49.6271 25.8632 50.3107 25.4754 51.2187 25.9693C51.5566 26.1528 51.8739 26.3804 52.1964 26.595C53.5842 27.5182 54.9695 28.4439 56.4373 29.4213C58.1734 26.5123 59.8631 23.686 61.5579 20.8468C61.2406 20.5494 61.0368 20.3322 60.8072 20.1434C58.3153 18.0955 55.8053 16.0708 53.3314 13.9996C51.665 12.6032 49.7767 11.7861 47.4756 11.5405C47.4756 12.417 47.4988 13.2678 47.4705 14.1159C47.4395 15.0313 47.1222 15.3519 46.2168 15.3881C45.4016 15.4192 44.5839 15.4088 43.7661 15.3933C42.6078 15.37 42.337 15.0934 42.3138 13.9272C42.2983 13.0764 42.3112 12.2257 42.3112 11.3181H40.2707V11.3103ZM37.9516 11.6206C33.9325 12.5101 30.0398 12.5024 26.1291 11.6439C26.5341 14.2219 28.9667 16.2544 31.6908 16.394C34.58 16.544 37.0977 14.6926 37.9516 11.6206ZM21.7437 9.1098C21.9681 9.13565 22.1332 9.17703 22.2957 9.16927C23.9828 9.07618 25.6183 9.33218 27.2641 9.7097C30.6718 10.4906 34.0924 10.3898 37.4795 9.56231C38.5759 9.29597 39.6619 9.12273 40.7866 9.16927C41.2819 9.18996 41.7798 9.15117 42.2493 9.14083V7.579C35.3926 8.43231 28.5978 8.32371 21.7437 7.58417V9.11238V9.1098ZM19.5304 13.2548V5.03198C19.1666 5.08111 18.8932 5.1199 18.6507 5.15351V13.2548H19.5304ZM45.3268 13.2548V5.03198C44.9631 5.08111 44.6896 5.1199 44.4445 5.15351V13.2548H45.3268Z" fill="#142137"/>
</svg>
