<svg width="56" height="64" viewBox="0 0 56 64" fill="none" xmlns="http://www.w3.org/2000/svg">
<path d="M55.997 31.9497C55.997 40.7378 56.002 49.5234 55.987 58.3115C55.987 59.0114 55.937 59.7362 55.7546 60.4061C55.1997 62.4506 53.4026 63.8553 51.2855 63.9853C50.9131 64.0078 50.5357 63.9978 50.1608 63.9978C35.3765 63.9978 20.5922 63.9978 5.80788 63.9953C5.228 63.9953 4.63313 64.0103 4.06825 63.9003C1.68877 63.4254 0.0766161 61.4708 0.00413176 59.0314C-0.00336662 58.7389 0.0016323 58.449 0.0016323 58.1566C0.0016323 40.7078 0.0016323 23.2566 0.00413176 5.80788C0.00413176 5.228 -0.0133644 4.63313 0.0991112 4.06825C0.564011 1.69377 2.52359 0.0766161 4.96056 0.00413176C5.253 -0.00336662 5.54293 0.0016323 5.83537 0.0016323C20.6197 0.0016323 35.404 0.0016323 50.1883 0.00413176C50.7681 0.00413176 51.363 -0.0133644 51.9279 0.0991112C54.3899 0.584006 55.982 2.58107 55.9895 5.21301C56.0045 10.8768 55.9945 16.5406 55.9945 22.2043C55.9945 25.4536 55.9945 28.7004 55.9945 31.9497H55.997ZM53.9899 32.0072C53.9899 23.3041 53.9899 14.601 53.9899 5.89786C53.9899 5.52294 54.0099 5.14552 53.975 4.7731C53.84 3.28342 52.7027 2.15367 51.2131 2.0187C50.9231 1.9937 50.6307 2.0062 50.3382 2.0062C35.4315 2.0062 20.5247 2.0062 5.61542 2.0062C5.36547 2.0062 5.11553 1.9962 4.86558 2.0137C3.31092 2.12617 2.14617 3.26843 2.0187 4.81309C1.9912 5.14302 2.0062 5.47795 2.0062 5.81288C2.0062 23.2591 2.0062 40.7078 2.0062 58.1541C2.0062 58.4865 1.9912 58.8214 2.0162 59.1538C2.13617 60.7035 3.29092 61.8533 4.84308 61.9732C5.13302 61.9957 5.42546 61.9832 5.7179 61.9832C20.5847 61.9832 35.449 61.9832 50.3157 61.9832C50.5657 61.9832 50.8156 61.9932 51.0656 61.9782C52.6877 61.8782 53.8675 60.721 53.9775 59.1113C54.0024 58.7389 53.9874 58.3615 53.9874 57.9866C53.9874 49.326 53.9874 40.6628 53.9874 32.0022L53.9899 32.0072Z" fill="#142137"/>
<path d="M27.9482 56.9945C16.3957 56.987 6.99275 47.5516 7.00025 35.9791C7.00775 24.3566 16.4582 14.9636 28.1082 14.9986C39.6032 15.0311 48.9987 24.4541 48.9987 35.9466C48.9987 47.5841 39.5782 57.0045 27.9507 56.9945H27.9482ZM9.00732 35.9616C8.99732 46.4493 17.503 54.9875 27.9607 54.9875C38.4585 54.9875 46.9916 46.4893 46.9891 36.0366C46.9891 25.5464 38.5009 17.0282 28.0307 17.0082C17.5555 16.9882 9.01731 25.4964 9.00482 35.9616H9.00732Z" fill="#142137"/>
<path d="M44.8647 11.0064C43.075 11.0064 41.2879 11.0164 39.4983 11.0039C38.2786 10.9939 38.0136 10.7365 37.9961 9.55921C37.9786 8.47694 37.9736 7.39468 37.9986 6.31491C38.0211 5.34262 38.3161 5.01519 39.2584 5.01019C43.085 4.9927 46.9117 4.9927 50.7384 5.01019C51.6757 5.01519 51.9706 5.34512 51.9906 6.32491C52.0156 7.44717 52.0156 8.57192 51.9906 9.69418C51.9681 10.7065 51.6657 10.9939 50.6059 11.0039C48.6938 11.0214 46.7792 11.0089 44.8647 11.0089V11.0064ZM49.9311 7.08724H40.0957V8.93934H49.9311V7.08724Z" fill="#142137"/>
<path d="M9.48723 6.15523C11.4268 4.68804 12.984 4.63805 14.2187 6.00526C15.2835 7.1825 15.2585 8.92963 14.1587 10.0744C12.909 11.3741 11.3568 11.2991 9.51723 9.85693C7.57764 11.3191 6.02048 11.3666 4.78325 10.0044C3.71848 8.82965 3.74597 7.08253 4.84573 5.93777C6.09546 4.63805 7.66513 4.71304 9.48473 6.15772L9.48723 6.15523ZM6.95278 7.02504C6.45539 7.05253 6.02798 7.49494 6.02298 7.99233C6.01548 8.53721 6.50788 9.01211 7.05276 8.98461C7.55015 8.95962 7.97756 8.51472 7.98256 8.01732C7.99006 7.46994 7.49766 6.99754 6.95278 7.02504ZM12.9815 8.04232C13.004 7.49744 12.5241 7.01004 11.9792 7.02254C11.4818 7.03504 11.0419 7.46494 11.0219 7.96233C10.9994 8.50722 11.4793 8.99461 12.0242 8.98211C12.5216 8.96962 12.9615 8.53971 12.9815 8.04232Z" fill="#142137"/>
<path d="M41.9979 36.0041C41.9829 43.7674 35.6742 50.0261 27.8909 49.9961C20.2151 49.9661 13.9714 43.6425 13.9964 35.9216C14.0239 28.2233 20.3125 21.9871 28.0384 21.9946C35.7317 22.0046 42.0104 28.3058 41.9979 36.0041ZM16.2659 33.972C17.9856 34.0195 19.4602 34.5344 20.8674 35.2893C21.2298 35.4842 21.6273 35.6292 22.0272 35.7342C23.9593 36.2416 25.8114 36.0366 27.581 35.0793C29.728 33.9171 32.0075 33.6821 34.352 34.277C35.1868 34.4894 35.9717 34.9093 36.769 35.2593C37.7888 35.7092 38.8085 36.1091 39.9508 35.9091C40.0533 30.5303 35.9042 24.5816 28.9357 24.0467C21.6198 23.4868 16.8333 29.1481 16.2709 33.9695L16.2659 33.972ZM16.0585 36.0366C15.921 42.6427 21.5973 48.1015 28.3158 47.9865C33.9571 47.889 39.8458 42.7277 39.6159 38.0787C38.966 37.9662 38.3012 37.9062 37.6688 37.7262C36.9939 37.5363 36.3166 37.2963 35.6992 36.9689C33.2273 35.6592 30.7828 35.6517 28.3133 36.9714C26.9711 37.6887 25.5264 38.0112 23.9967 38.0112C22.3771 38.0112 20.8799 37.6088 19.4577 36.8539C18.4255 36.309 17.3407 35.9366 16.061 36.0366H16.0585Z" fill="#142137"/>
</svg>
