<svg width="86" height="54" viewBox="0 0 86 54" fill="none" xmlns="http://www.w3.org/2000/svg">
<path d="M75.6553 11.4187C75.9477 12.0187 76.2052 12.5875 76.4941 13.139C77.9766 15.9519 79.4766 18.7508 80.9557 21.5672C83.9278 27.231 85.4313 33.2972 85.9116 39.6409C86.1482 42.7555 86.1204 42.7347 83.0578 43.4943C81.1506 43.966 79.2295 44.4203 77.3711 45.0481C73.783 46.2551 71.1798 48.6656 69.5928 52.0577C68.8932 53.556 67.9153 54.0035 66.3318 54C45.1059 53.9618 23.88 53.9757 2.65411 53.9722C2.24692 53.9722 1.83626 53.993 1.43951 53.9341C0.193589 53.7433 -0.230998 53.0601 0.117024 51.8565C0.148346 51.7455 0.183149 51.6345 0.224911 51.527C4.44643 41.1739 9.79553 31.5145 17.6469 23.3915C25.3382 15.4351 34.5156 10.1076 45.433 7.9399C52.5049 6.53521 59.6045 6.62886 66.6833 7.89482C67.6995 8.07517 68.2877 7.83932 68.9629 7.1838C71.761 4.46112 74.9349 2.24136 78.443 0.510636C80.0439 -0.280154 80.994 -0.210786 82.132 1.13148C82.8107 1.93267 83.3223 2.98012 83.5763 3.99983C83.9522 5.51204 83.3083 6.4381 81.9267 7.23929C80.1761 8.25553 78.4708 9.3446 76.762 10.4302C76.3862 10.6695 76.0869 11.0302 75.6588 11.4222L75.6553 11.4187ZM83.3571 40.5739C83.2179 39.4987 83.0891 38.6455 82.9951 37.7888C82.4975 33.103 81.4081 28.5698 79.2922 24.3384C77.3815 20.5162 75.3699 16.7392 73.3305 12.9829C73.0417 12.4488 72.3909 11.9112 71.8097 11.769C65.0302 10.0903 58.1846 9.23014 51.1615 9.88566C41.9772 10.7424 33.7151 13.8778 26.3544 19.3682C17.5182 25.9616 11.3025 34.643 6.42319 44.3752C6.32923 44.566 6.30487 44.7914 6.19002 45.225H8.18419C17.1701 45.225 26.1596 45.225 35.1455 45.225C46.7416 45.225 58.3377 45.2354 69.9373 45.2042C70.703 45.2042 71.5974 45.0724 72.2134 44.67C74.2772 43.3243 76.4906 42.3774 78.8537 41.7393C80.2945 41.3508 81.7457 40.9866 83.3571 40.5704V40.5739ZM3.58333 51.1733H5.5775C25.3521 51.1733 45.1303 51.1733 64.9049 51.1733C65.3678 51.1733 65.8411 51.2183 66.2935 51.142C66.6067 51.09 67 50.9409 67.1636 50.7015C67.6961 49.9212 68.138 49.0784 68.7749 47.9858H66.3492C46.6302 47.9858 26.9113 47.9858 7.1958 47.9858C5.36753 47.9858 4.15525 48.8575 3.55897 50.601C3.52417 50.6981 3.56593 50.8195 3.58333 51.1767V51.1733ZM79.9743 2.75121C76.7794 4.30851 73.9257 6.19531 71.3364 8.64745C72.8468 9.53536 73.9048 9.37928 75.1055 8.37345C76.501 7.20114 78.1367 6.29936 79.7098 5.35249C81.1784 4.46459 81.2307 4.3432 79.9743 2.75468V2.75121Z" fill="#142137"/>
</svg>
