<svg width="22" height="22" viewBox="0 0 22 22" fill="none" xmlns="http://www.w3.org/2000/svg">
<path d="M16.3906 0.00652348C17.3671 0.00652348 18.3446 0.0285093 19.3211 0.00102703C20.8363 -0.0411124 22.0281 1.21941 21.9997 2.69245C21.9631 4.58415 21.9887 6.47767 21.9915 8.37028C21.9933 9.80119 21.4821 11.0177 20.4726 12.0263C17.4386 15.0576 14.4064 18.0907 11.3696 21.1202C10.1998 22.2864 8.67634 22.2946 7.51568 21.1367C5.28962 18.9161 3.06814 16.691 0.849406 14.4631C-0.0190321 13.5901 -0.237974 12.4798 0.268615 11.4492C0.40053 11.1808 0.583745 10.9215 0.795358 10.7099C3.87245 7.6136 6.95412 4.52094 10.0459 1.43926C11.0078 0.480134 12.1913 0.0120199 13.5517 0.00743955C14.498 0.00377525 15.4443 0.00743955 16.3906 0.00743955V0.00652348ZM16.3503 1.73241C15.48 1.73241 14.6098 1.74981 13.7395 1.72783C12.6823 1.70034 11.8166 2.0796 11.0755 2.82528C8.11662 5.80252 5.14671 8.7706 2.18229 11.7423C2.07511 11.8504 1.96244 11.9576 1.87816 12.0822C1.66929 12.3891 1.68395 12.7665 1.90747 13.0642C1.98076 13.1613 2.07053 13.2456 2.15664 13.3327C4.32408 15.5047 6.49242 17.6758 8.66077 19.8469C8.73589 19.922 8.81009 20.0008 8.89345 20.0667C9.22599 20.3287 9.61074 20.337 9.94877 20.0869C10.0468 20.0145 10.1329 19.9275 10.2199 19.8414C13.2127 16.8531 16.2019 13.8631 19.1975 10.8776C19.9157 10.1612 20.2839 9.31842 20.2702 8.29516C20.2528 6.90639 20.2656 5.51671 20.2656 4.12794C20.2656 3.60853 20.2766 3.08911 20.2601 2.57062C20.2436 2.05853 19.9331 1.76264 19.4191 1.73424C19.3129 1.72874 19.2057 1.73149 19.0985 1.73149C18.1824 1.73149 17.2664 1.73149 16.3503 1.73149V1.73241Z" fill="#1D92CD"/>
<path d="M15.747 3.57547C17.1935 3.56815 18.3377 4.70408 18.3358 6.14598C18.334 7.56315 17.1962 8.7119 15.7873 8.71832C14.3555 8.72473 13.1893 7.56773 13.1912 6.1414C13.1921 4.72881 14.3344 3.5828 15.747 3.57547ZM16.6127 6.14415C16.6127 5.66412 16.2582 5.30502 15.7791 5.29953C15.2991 5.29403 14.9317 5.6458 14.9225 6.12033C14.9125 6.61684 15.2844 6.99426 15.7791 6.98785C16.2591 6.98235 16.6136 6.62325 16.6136 6.14415H16.6127Z" fill="#1D92CD"/>
</svg>
