<svg width="20" height="16" viewBox="0 0 20 16" fill="none" xmlns="http://www.w3.org/2000/svg">
<path d="M16.146 15.9992H11.0899V11.0576H8.29524V15.985H3.01103C3.0043 15.8855 2.99008 15.7786 2.99008 15.6716C2.98859 13.6145 2.99158 11.5581 2.9856 9.50094C2.9856 9.31169 3.02823 9.17928 3.18757 9.0581C5.25592 7.47523 7.31904 5.88563 9.38365 4.29827C9.44125 4.25413 9.50484 4.21673 9.58413 4.16437C9.74795 4.28854 9.90579 4.40674 10.0621 4.52717C12.0078 6.02402 13.9535 7.52161 15.8999 9.01696C16.051 9.1329 16.167 9.23539 16.1655 9.46504C16.1542 11.5715 16.1587 13.6788 16.158 15.7853C16.158 15.8459 16.1505 15.9057 16.1445 16L16.146 15.9992Z" fill="white"/>
<path d="M19.15 7.36603C18.699 7.9525 18.2741 8.50381 17.8282 9.08355C15.0784 6.96882 12.345 4.86605 9.57576 2.73561C6.83417 4.84436 4.09332 6.95236 1.32255 9.0828C0.87746 8.50456 0.446585 7.94577 0 7.36453C3.19267 4.90869 6.37038 2.46407 9.57352 0C10.9155 1.03081 12.2523 2.05788 13.6616 3.14031V1.82449H16.4443V2.21946C16.4443 3.11712 16.4571 4.01477 16.4369 4.91168C16.4301 5.19594 16.5289 5.36276 16.7503 5.52733C17.5492 6.12203 18.3332 6.73767 19.15 7.36603Z" fill="white"/>
</svg>
