<svg width="61" height="44" viewBox="0 0 61 44" fill="none" xmlns="http://www.w3.org/2000/svg">
<path d="M3.18471 30.9699C-1.40572 27.3894 -0.676485 21.7858 3.21743 18.9898C1.78701 17.9143 0.693163 16.6176 0.230381 14.8389C-0.613378 11.5913 0.943253 8.33904 3.54932 6.99111C4.88391 6.29968 6.34471 5.84106 7.76111 5.31026C11.9378 3.74116 16.1239 2.19301 20.3006 0.621587C21.3664 0.221164 22.4556 0 23.5962 0C33.1744 0.00465608 42.7502 0.00232804 52.3284 0C53.9575 0 55.4861 0.370159 56.8604 1.26413C60.0742 3.35704 60.9764 7.78264 58.7887 10.9907C58.2534 11.7752 57.5125 12.4224 56.8698 13.1278C61.3456 16.5524 60.7824 22.1024 56.8464 24.938C57.4915 25.6364 58.2301 26.2766 58.7746 27.0518C61.2358 30.5555 59.8848 35.7867 55.5165 37.4559C53.1979 38.3428 50.8653 39.1972 48.5397 40.0679C45.777 41.1016 43.0097 42.1213 40.2587 43.1828C38.8633 43.7206 37.4469 44.0023 35.9464 44C26.5248 43.9814 17.1032 43.993 7.68164 43.9883C6.10164 43.9883 4.60577 43.6601 3.24314 42.8127C-0.295508 40.6127 -1.25146 35.4537 1.96932 32.0106C2.30823 31.6474 2.72426 31.3587 3.18704 30.9653L3.18471 30.9699ZM22.0326 32.0967C17.2037 32.0967 12.3749 32.0921 7.54608 32.1037C6.88696 32.1037 6.20214 32.0874 5.57575 32.255C3.82045 32.7276 2.38536 34.469 2.21707 36.1941C2.00204 38.4034 2.91826 40.2099 4.70861 41.1737C5.73936 41.7278 6.85424 41.8279 7.98315 41.8279C17.2505 41.8372 26.5178 41.8372 35.7875 41.8256C36.4816 41.8256 37.1828 41.7488 37.8723 41.6487C40.3452 41.2901 41.7218 39.174 41.8644 37.2696C42.035 34.9951 40.6186 32.9045 38.48 32.2923C37.8583 32.1153 37.1758 32.106 36.519 32.1037C31.6902 32.0897 26.8614 32.0967 22.0326 32.0967ZM22.0068 17.9026C27.0297 17.9026 32.0501 17.912 37.073 17.898C39.0036 17.8933 40.4293 16.9575 41.3128 15.2976C42.2056 13.6237 42.0677 11.9335 41.0206 10.3481C40.0179 8.82793 38.5384 8.18074 36.7504 8.18074C26.9408 8.17841 17.1289 8.18074 7.31936 8.18074C7.12537 8.18074 6.92903 8.17143 6.73504 8.18772C3.46518 8.45312 1.40837 11.6053 2.44846 14.6341C3.1403 16.6502 4.87456 17.8957 7.05525 17.9003C12.0383 17.9143 17.0214 17.905 22.0045 17.9026H22.0068ZM22.0396 29.7989C26.8684 29.7989 31.6949 29.8059 36.5237 29.7943C37.1431 29.7943 37.7952 29.8176 38.3725 29.643C40.4503 29.0097 41.7639 27.2241 41.8691 25.1801C41.9719 23.1733 40.7659 21.3132 38.861 20.4937C38.099 20.1655 37.302 20.0584 36.4746 20.0607C26.8567 20.0677 17.2411 20.0607 7.62321 20.0747C7.0085 20.0747 6.37276 20.1352 5.78376 20.3005C1.9997 21.3621 1.42707 25.4269 2.94864 27.6408C3.95134 29.0982 5.31163 29.8106 7.08797 29.8059C12.0711 29.7919 17.0541 29.8013 22.0396 29.8013V29.7989ZM12.3936 5.88063C12.4193 5.92487 12.4427 5.97143 12.4684 6.01566C12.8961 6.01566 13.3238 6.01566 13.7516 6.01566C21.4646 6.01566 29.1776 5.99704 36.8907 6.02264C41.3525 6.03894 44.2928 9.62645 44.0264 13.6493C43.982 14.3244 43.781 14.9879 43.6501 15.6631C43.7459 15.6561 43.8207 15.6677 43.8815 15.6444C47.5931 14.2639 51.321 12.923 55.0069 11.4819C57.0123 10.6997 58.3002 8.38561 57.6387 5.76889C57.1666 3.89947 55.1892 2.23259 53.0763 2.27915C50.0776 2.34667 47.0789 2.29312 44.0778 2.29312C37.2226 2.29312 30.365 2.29312 23.5097 2.29312C22.6519 2.29312 21.8105 2.3164 20.9878 2.64466C19.5831 3.20571 18.1503 3.70391 16.7339 4.23471C15.2848 4.77714 13.838 5.32889 12.3913 5.87598L12.3936 5.88063ZM43.5519 27.706C47.4388 26.2533 51.1504 24.9031 54.8316 23.476C56.6103 22.7869 57.6107 21.3994 57.7696 19.502C57.9449 17.4161 57.0684 15.8144 55.2711 14.7551C54.4881 14.2942 53.6957 14.229 52.7491 14.6178C49.8462 15.8051 46.8825 16.8434 43.9446 17.9445C42.9769 18.3077 42.0116 18.6779 40.9318 19.0899C43.7576 21.397 44.6785 24.1651 43.5519 27.706ZM43.5449 39.5883C43.9072 39.4673 44.0848 39.4114 44.2578 39.3486C47.7473 38.0588 51.2509 36.7994 54.7241 35.4654C58.0641 34.1826 58.8635 29.9363 56.2784 27.443C55.1869 26.3907 54.0416 26.0042 52.499 26.6258C48.9417 28.0599 45.3259 29.3543 41.7335 30.7069C41.4998 30.7953 41.2754 30.9141 40.9669 31.0561C43.7179 33.3119 44.6995 36.0358 43.5449 39.5883Z" fill="#142137"/>
<path d="M22.0559 37.98C16.9957 37.98 11.9355 37.98 6.87529 37.98C6.56443 37.98 6.2489 37.9986 5.94271 37.9614C5.41682 37.8939 5.01247 37.4469 4.98209 36.9487C4.95638 36.5273 5.28593 36.0268 5.76274 35.9104C6.13203 35.8196 6.53171 35.8196 6.91736 35.8196C15.8692 35.8149 24.8209 35.8173 33.7727 35.8173C35.0185 35.8173 36.2643 35.7963 37.5101 35.8312C37.8793 35.8405 38.2814 35.936 38.5969 36.1153C38.9288 36.3062 39.1672 36.6577 39.041 37.1C38.9288 37.4958 38.6834 37.8171 38.272 37.9009C37.8957 37.9777 37.5007 37.9777 37.1151 37.9777C32.0946 37.9823 27.0741 37.98 22.0513 37.98H22.0559Z" fill="#142137"/>
<path d="M21.9928 12.0339C27.0507 12.0339 32.1086 12.0339 37.1688 12.0339C37.4797 12.0339 37.7928 12.0199 38.1014 12.0525C38.6156 12.1084 39.0129 12.4645 39.041 12.9278C39.069 13.3818 38.8797 13.7706 38.4543 13.9754C38.2159 14.0895 37.9401 14.1454 37.6736 14.185C37.4446 14.2199 37.2085 14.1943 36.9748 14.1943C26.9759 14.1943 16.9747 14.1943 6.97578 14.1943C6.62752 14.1943 6.26758 14.2176 5.92867 14.1477C5.37474 14.0336 4.93533 13.4493 4.97506 12.9744C5.01947 12.4482 5.45187 12.0851 6.11566 12.0408C6.42651 12.0199 6.73737 12.0339 7.04823 12.0339C12.029 12.0339 17.0097 12.0339 21.9905 12.0339H21.9928Z" fill="#142137"/>
<path d="M22.1097 23.9275C27.0951 23.9275 32.0805 23.9275 37.066 23.9275C37.3768 23.9275 37.69 23.9112 38.0009 23.9368C38.6109 23.988 39.048 24.414 39.0784 24.9541C39.1017 25.3615 38.653 25.9273 38.1668 26.0413C37.9074 26.1019 37.6246 26.0856 37.3535 26.0879C27.1489 26.0879 16.9443 26.0879 6.73973 26.0879C6.43121 26.0879 6.111 26.0879 5.8165 26.0111C5.29762 25.876 4.94703 25.3662 4.97742 24.889C5.01014 24.3977 5.41215 24.0043 5.98712 23.9438C6.29564 23.9112 6.60884 23.9298 6.92204 23.9298C11.9846 23.9298 17.0495 23.9298 22.112 23.9298L22.1097 23.9275Z" fill="#142137"/>
</svg>
