<svg width="48" height="54" viewBox="0 0 48 54" fill="none" xmlns="http://www.w3.org/2000/svg">
<path d="M0.148481 30.4497C0.148481 23.2352 0.169751 16.0208 0.125084 8.80852C0.118703 7.73776 0.473908 7.15275 1.49273 6.90776C1.79901 6.83385 2.0819 6.66489 2.38818 6.58675C6.15079 5.60258 9.33487 3.72506 11.7575 0.654283C12.4083 -0.169377 13.0549 -0.163041 13.9249 0.453648C19.7677 4.59518 27.731 4.58673 33.6079 0.440977C34.4204 -0.131362 35.0563 -0.213728 35.6966 0.597261C38.1638 3.72506 41.4415 5.54767 45.2339 6.66489C47.7097 7.39351 47.3566 7.26257 47.3587 9.67864C47.3651 23.8604 47.363 38.0421 47.3609 52.2239C47.3609 53.8965 47.2545 54 45.538 54C31.0066 54 16.4772 54 1.94577 54C0.259083 54 0.148481 53.8902 0.148481 52.1985C0.148481 44.9503 0.148481 37.7 0.148481 30.4518V30.4497ZM7.91618 6.45581C6.24225 7.07672 4.64277 7.72509 3.00288 8.25519C2.17974 8.52129 1.96917 8.94368 1.9713 9.77368C1.99895 23.4971 1.99044 37.2185 1.99044 50.9419V52.1014H22.8135V12.817C22.3626 13.1929 22.0457 13.4464 21.7394 13.7146C20.1782 15.0958 18.617 16.4749 17.0643 17.8646C15.5158 19.25 15.2606 19.2162 14.2503 17.4591C13.7079 16.5129 13.1698 15.5646 12.6232 14.6206C11.062 11.9131 9.49865 9.20556 7.91193 6.45581H7.91618ZM45.5189 52.1225C45.5189 51.6156 45.5189 51.1679 45.5189 50.7201C45.5189 40.9735 45.5189 31.2269 45.5189 21.4802C45.5189 17.5034 45.5317 13.5287 45.4955 9.55192C45.4913 9.18445 45.2552 8.60577 44.9744 8.4875C43.2239 7.75888 41.4287 7.13374 39.6123 6.46214C39.406 6.81061 39.2252 7.10629 39.0508 7.4083C37.0089 10.9416 34.9755 14.4791 32.9251 18.0082C32.3423 19.0135 31.8829 19.0916 31.0023 18.3419C29.9814 17.4717 28.9923 16.5615 27.9842 15.6766C26.9377 14.7579 25.8848 13.8455 24.7278 12.8381V52.1246H45.521L45.5189 52.1225ZM15.8179 16.5319C18.0342 14.5784 20.1463 12.7156 22.3285 10.7937C18.8786 8.16015 15.4925 5.57301 12.1999 3.05768C11.2619 3.95737 10.409 4.7747 9.53268 5.61314C11.5895 9.18867 13.6611 12.7853 15.8179 16.5319ZM31.6936 16.5298C33.8503 12.7811 35.9454 9.13798 37.9065 5.72718C37.0131 4.73457 36.2432 3.87923 35.4243 2.96687C31.9977 5.58568 28.6201 8.1686 25.1808 10.7959C27.3907 12.741 29.5028 14.5995 31.6936 16.5277V16.5298ZM30.5535 4.40088C28.3798 4.68811 26.0997 5.22454 23.8174 5.22454C21.4948 5.22454 19.1742 4.69444 16.9707 4.41144C19.0105 5.97428 21.2034 7.66595 23.4218 9.32594C23.5749 9.4421 23.9918 9.40409 24.162 9.27737C26.3528 7.63427 28.5223 5.9595 30.5557 4.40299L30.5535 4.40088Z" fill="#142137"/>
<path d="M19.5594 23.3894C18.9724 23.7801 18.581 24.232 18.3173 24.1687C17.9621 24.0821 17.7047 23.5985 17.4048 23.2859C17.7217 23.0303 18.028 22.5911 18.3598 22.5699C18.664 22.5509 18.9979 22.9818 19.5594 23.3894Z" fill="#142137"/>
<path d="M19.5612 30.5005C19.0082 30.9314 18.6573 31.4065 18.3893 31.3643C18.0277 31.3073 17.7299 30.8511 17.4066 30.566C17.698 30.283 17.9639 29.8141 18.2914 29.7677C18.5956 29.7254 18.9636 30.133 19.5634 30.5005H19.5612Z" fill="#142137"/>
<path d="M18.3148 36.5269C18.7232 37.1013 19.1592 37.4434 19.1337 37.7518C19.1082 38.0622 18.5679 38.6135 18.3637 38.5691C18 38.4889 17.5427 38.077 17.464 37.7286C17.4066 37.473 17.8894 37.095 18.3127 36.5269H18.3148Z" fill="#142137"/>
<path d="M18.2706 46.1994C17.8749 45.6439 17.3964 45.2469 17.4623 44.9977C17.558 44.645 18.0579 44.3979 18.3833 44.1064C18.6534 44.419 19.1171 44.7189 19.1362 45.0463C19.1533 45.3462 18.6917 45.6714 18.2684 46.2015L18.2706 46.1994Z" fill="#142137"/>
<path d="M35.5223 25.1419C37.1856 25.1419 38.851 25.1567 40.5143 25.1356C41.4884 25.125 41.916 25.52 41.8989 26.5274C41.8564 28.9519 41.9245 31.3785 41.85 33.803C41.8351 34.2677 41.4948 34.8717 41.1098 35.1505C39.5997 36.2487 38.0023 37.2286 36.4603 38.2825C35.8137 38.7239 35.2543 38.6943 34.6183 38.2592C33.106 37.2223 31.5342 36.2677 30.0581 35.1843C29.6497 34.8844 29.2775 34.2529 29.2626 33.7629C29.1818 31.3405 29.252 28.9118 29.2137 26.4872C29.1967 25.4566 29.6923 25.1229 30.6388 25.1356C32.268 25.1567 33.8951 25.1419 35.5244 25.1419H35.5223ZM31.0003 26.9962C31.0003 29.1356 30.9812 31.1673 31.0237 33.199C31.0301 33.4757 31.2854 33.8347 31.5321 34.0037C32.838 34.9034 34.1802 35.7545 35.5074 36.6225C36.8687 35.7545 38.2363 34.8928 39.5848 34.0058C39.7975 33.8664 40.0804 33.6109 40.0846 33.406C40.1208 31.2771 40.108 29.1483 40.108 26.9941H31.0003V26.9962Z" fill="#142137"/>
</svg>
