<svg width="70" height="44" viewBox="0 0 70 44" fill="none" xmlns="http://www.w3.org/2000/svg">
<path d="M61.5799 9.30412C61.8179 9.79303 62.0275 10.2565 62.2626 10.7059C63.4694 12.9978 64.6903 15.2785 65.8942 17.5732C68.3133 22.1882 69.5371 27.1311 69.928 32.3C70.1206 34.8378 70.098 34.8209 67.6052 35.4398C66.0528 35.8241 64.4891 36.1943 62.9765 36.7059C60.0559 37.6893 57.937 39.6535 56.6453 42.4174C56.0759 43.6382 55.2799 44.0028 53.991 44C36.7141 43.9689 19.4372 43.9802 2.16032 43.9774C1.82889 43.9774 1.49463 43.9943 1.17169 43.9463C0.157573 43.7909 -0.188022 43.2341 0.0952524 42.2535C0.120747 42.163 0.149074 42.0726 0.183067 41.985C3.61918 33.5491 7.97311 25.6785 14.3638 19.0598C20.6241 12.5767 28.0941 8.23586 36.9804 6.46955C42.7365 5.32499 48.5153 5.40129 54.2771 6.43281C55.1043 6.57977 55.583 6.38759 56.1326 5.85346C58.4101 3.63499 60.9935 1.82629 63.8489 0.416074C65.152 -0.228274 65.9253 -0.171752 66.8516 0.921944C67.404 1.57477 67.8204 2.42825 68.0272 3.25912C68.3332 4.49129 67.8091 5.24586 66.6845 5.89868C65.2596 6.72673 63.8716 7.61412 62.4807 8.49868C62.1748 8.69368 61.9312 8.98759 61.5827 9.30694L61.5799 9.30412ZM67.8488 33.0602C67.7355 32.1841 67.6306 31.4889 67.5542 30.7909C67.1491 26.9728 66.2624 23.2791 64.5401 19.8313C62.985 16.7169 61.3476 13.6393 59.6876 10.5787C59.4525 10.1435 58.9228 9.70542 58.4497 9.58955C52.9316 8.22173 47.3596 7.52086 41.6431 8.05499C34.1675 8.75303 27.4425 11.3078 21.4513 15.7815C14.259 21.1539 9.19968 28.2276 5.22818 36.1576C5.1517 36.313 5.13187 36.4967 5.03839 36.85H6.66155C13.9757 36.85 21.2927 36.85 28.6068 36.85C38.0455 36.85 47.4842 36.8585 56.9257 36.833C57.5489 36.833 58.2769 36.7256 58.7783 36.3978C60.4581 35.3013 62.2598 34.5298 64.1832 34.0098C65.356 33.6932 66.5372 33.3965 67.8488 33.0574V33.0602ZM2.91666 41.6967H4.53982C20.6355 41.6967 36.7339 41.6967 52.8296 41.6967C53.2063 41.6967 53.5916 41.7335 53.9598 41.6713C54.2148 41.6289 54.5349 41.5074 54.668 41.3124C55.1014 40.6765 55.4612 39.9898 55.9796 39.0995H54.0052C37.9548 39.0995 21.9045 39.0995 5.85705 39.0995C4.36892 39.0995 3.38218 39.8098 2.89683 41.2304C2.86851 41.3096 2.9025 41.4085 2.91666 41.6996V41.6967ZM65.0953 2.24173C62.4949 3.51064 60.172 5.04803 58.0645 7.04607C59.2939 7.76955 60.155 7.64238 61.1323 6.82281C62.2683 5.86759 63.5997 5.13281 64.8801 4.36129C66.0755 3.63781 66.118 3.5389 65.0953 2.24455V2.24173Z" fill="#142137"/>
</svg>
