<svg width="54" height="60" viewBox="0 0 54 60" fill="none" xmlns="http://www.w3.org/2000/svg">
<path d="M28.1361 8.56772C30.8193 10.0147 33.2692 11.3592 35.7441 12.6463C36.0576 12.8112 36.5491 12.7962 36.9077 12.6913C38.1941 12.3164 39.3776 12.4538 40.496 13.1936C42.7604 14.6905 45.0097 16.2075 46.8302 18.2568C48.8513 20.5335 50.8799 22.8002 52.8885 25.0869C54.1924 26.5713 54.3228 28.1883 53.4176 29.9401C52.0986 32.4992 50.3383 34.686 48.0564 36.4503C46.4214 37.7124 44.8066 37.6174 43.3346 36.1954C42.9585 35.8305 42.5848 35.4607 42.1109 34.9983C42.1109 36.1004 42.0582 37.0051 42.1184 37.9048C42.4595 43.013 42.8155 48.1212 43.1967 53.2269C43.3396 55.1487 42.4068 56.7931 40.5838 57.4654C34.9367 59.5471 29.0991 60.3268 23.1009 59.877C20.0091 59.6446 16.9824 59.0648 14.0184 58.1451C11.4406 57.3454 10.5379 55.8684 10.7511 53.1694C11.2049 47.4439 11.5836 41.711 11.9898 35.983C12.0074 35.7356 11.9898 35.4882 11.9898 34.9109C11.4657 35.4457 11.1147 35.8056 10.7611 36.1579C9.27661 37.6424 7.60405 37.7649 5.94904 36.4778C3.60445 34.656 1.78646 32.3993 0.480004 29.7377C-0.294839 28.1583 -0.134353 26.6638 0.981521 25.3043C3.89283 21.7555 6.88186 18.2668 10.385 15.2778C11.4808 14.3432 12.7922 13.6484 14.0485 12.9162C14.9513 12.3889 15.9643 12.3339 16.9573 12.6763C17.5165 12.8687 17.9754 12.8037 18.492 12.5238C20.8015 11.2718 23.136 10.0647 25.4505 8.81763C25.7615 8.65019 26.115 8.39778 26.2454 8.09789C26.6792 7.10324 27.3839 6.3835 28.239 5.74622C29.0514 5.13894 29.3022 4.16428 28.9787 3.29709C28.6753 2.48738 27.8076 1.94257 26.8924 1.99006C25.9871 2.03754 25.265 2.63733 25.0267 3.562C24.9741 3.76193 24.9841 3.97935 24.9314 4.17678C24.786 4.71909 24.4575 5.06896 23.8557 5.00648C23.1837 4.93651 22.9379 4.48167 22.9805 3.86439C23.0056 3.49452 23.0583 3.11716 23.1736 2.76728C23.7278 1.13036 25.2374 0.0332498 26.9576 0.000761325C28.7079 -0.0317271 30.24 0.977914 30.8794 2.58234C31.5189 4.18927 31.1026 5.97114 29.8012 7.14323C29.3147 7.58057 28.8057 7.99542 28.1361 8.56772ZM15.365 14.4156C14.2918 15.0854 13.196 15.6277 12.2707 16.3749C8.58451 19.3539 5.53529 22.9501 2.55378 26.6038C1.9996 27.2836 1.91183 28.0358 2.298 28.823C3.49161 31.2547 5.12906 33.3364 7.30063 34.9708C8.04288 35.5281 8.59705 35.4657 9.30168 34.8134C9.76057 34.3886 10.1844 33.9262 10.6332 33.4914C11.2952 32.8491 12.0675 32.6442 12.9276 33.0265C13.7953 33.4114 14.1589 34.1336 14.0962 35.0483C13.6724 41.1512 13.2561 47.254 12.7922 53.3518C12.6618 55.0762 13.0079 55.7235 14.6378 56.2308C19.1916 57.6478 23.8582 58.2001 28.6101 57.9427C32.3815 57.7378 36.0576 57.013 39.6133 55.726C40.817 55.2911 41.2809 54.6389 41.1956 53.4968C40.9524 50.3004 40.664 47.109 40.4484 43.9127C40.2503 40.9637 40.1199 38.0098 39.9669 35.0583C39.9193 34.1436 40.2603 33.4214 41.1204 33.0265C41.9805 32.6342 42.7528 32.8391 43.4174 33.4739C43.8386 33.8762 44.2323 34.3086 44.6561 34.7134C45.4886 35.5107 46.0152 35.5381 46.9455 34.8159C48.9215 33.2814 50.416 31.3571 51.5996 29.1654C52.1688 28.1108 52.1237 27.2061 51.3162 26.3114C48.9691 23.7148 46.6923 21.0508 44.2724 18.5217C42.6876 16.8648 40.7117 15.6702 38.6981 14.4606C38.4022 14.863 38.1589 15.1954 37.9157 15.5253C35.8745 18.3018 33.5249 20.7534 30.5409 22.5528C28.2515 23.9323 25.9947 23.9548 23.6852 22.5877C21.5387 21.3182 19.7082 19.6938 18.0883 17.8269C17.1905 16.7923 16.3756 15.6877 15.3675 14.4206L15.365 14.4156ZM33.7607 14.0633C33.708 14.0033 33.6478 13.8758 33.55 13.8234C31.5715 12.7537 29.5805 11.7116 27.6146 10.622C27.0779 10.3246 26.6792 10.5045 26.2229 10.7469C24.4199 11.7016 22.6069 12.6338 20.804 13.5859C20.5708 13.7084 20.3727 13.8958 20.1846 14.0333C24.7359 17.0422 29.257 17.1072 33.7607 14.0633ZM34.4853 16.3125C32.0154 17.2471 29.6432 18.4417 26.9651 18.4342C24.3246 18.4267 21.9951 17.1622 19.5452 16.3225C21.1851 18.3393 23.0131 20.0736 25.3402 21.2057C26.4586 21.7505 27.597 21.748 28.7179 21.2057C31.0474 20.0761 32.8855 18.3542 34.4853 16.3125Z" fill="#142137"/>
</svg>
