<svg width="20" height="20" viewBox="0 0 20 20" fill="none" xmlns="http://www.w3.org/2000/svg">
<path fill-rule="evenodd" clip-rule="evenodd" d="M1.46416 3.24859C1.76384 2.75144 3.41596 0.946726 4.59327 1.00121C4.94549 1.03137 5.25685 1.24346 5.50982 1.49057H5.5108C6.09069 2.05874 7.7545 4.203 7.8479 4.65442C8.0785 5.76158 6.75816 6.39979 7.16195 7.5157C8.19137 10.0345 9.96511 11.8081 12.4851 12.8365C13.6002 13.2412 14.2385 11.9219 15.3457 12.1515C15.7972 12.2459 17.9426 13.9086 18.5099 14.4894V14.4894C18.756 14.7414 18.9701 15.0537 18.9993 15.4059C19.043 16.6463 17.1263 18.3207 16.7526 18.5347C15.8711 19.1661 14.7211 19.1544 13.319 18.5026C9.40662 16.8749 3.15423 10.7408 1.49627 6.68096C0.861882 5.2868 0.819071 4.12906 1.46416 3.24859Z" stroke="white" stroke-width="1.5" stroke-linecap="round" stroke-linejoin="round"/>
<path d="M12.4287 1.23828C15.9359 1.62765 18.705 4.39397 19.0991 7.90018" stroke="white" stroke-width="1.5" stroke-linecap="round" stroke-linejoin="round"/>
<path d="M12.4287 4.5918C14.1056 4.91864 15.4158 6.22885 15.7426 7.90569" stroke="white" stroke-width="1.5" stroke-linecap="round" stroke-linejoin="round"/>
</svg>
